<?xml version="1.0" encoding="utf-8"?>
<!-- Generator: Adobe Illustrator 26.3.1, SVG Export Plug-In . SVG Version: 6.00 Build 0)  -->
<!DOCTYPE svg PUBLIC "-//W3C//DTD SVG 1.1//EN" "http://www.w3.org/Graphics/SVG/1.1/DTD/svg11.dtd" [
	<!ENTITY ns_extend "http://ns.adobe.com/Extensibility/1.0/">
	<!ENTITY ns_ai "http://ns.adobe.com/AdobeIllustrator/10.0/">
	<!ENTITY ns_graphs "http://ns.adobe.com/Graphs/1.0/">
	<!ENTITY ns_vars "http://ns.adobe.com/Variables/1.0/">
	<!ENTITY ns_imrep "http://ns.adobe.com/ImageReplacement/1.0/">
	<!ENTITY ns_sfw "http://ns.adobe.com/SaveForWeb/1.0/">
	<!ENTITY ns_custom "http://ns.adobe.com/GenericCustomNamespace/1.0/">
	<!ENTITY ns_adobe_xpath "http://ns.adobe.com/XPath/1.0/">
]>
<svg version="1.1" id="圖層_1" xmlns:x="&ns_extend;" xmlns:i="&ns_ai;" xmlns:graph="&ns_graphs;"
	 xmlns="http://www.w3.org/2000/svg" xmlns:xlink="http://www.w3.org/1999/xlink" x="0px" y="0px" viewBox="0 0 178.6 39.7"
	 style="enable-background:new 0 0 178.6 39.7;" xml:space="preserve">
<style type="text/css">
	.st0{fill:#00AECB;}
	.st1{fill:#FFFFFF;}
	.st2{fill:#051D5D;}
</style>
<metadata>
	<sfw  xmlns="&ns_sfw;">
		<slices></slices>
		<sliceSourceBounds  bottomLeftOrigin="true" height="39.6" width="176.9" x="2.6" y="0.2"></sliceSourceBounds>
	</sfw>
</metadata>
<g>
	<g>
		<path class="st0" d="M18.9,38.1c-0.4,0-0.8-0.2-1-0.5l-3.2-4.5c-0.2-0.3-0.3-0.8-0.2-1.1c0.1-0.4,0.4-0.7,0.8-0.8
			c1.1-0.3,2-0.6,2.7-0.9c-0.2-0.1-0.4-0.2-0.5-0.4c-0.2-0.3-0.3-0.7-0.3-1l0.3-1.5c-0.3,0.3-0.5,0.7-0.8,1c-0.2,0.3-0.6,0.4-1,0.4
			c-0.2,0-0.4,0-0.6-0.1l-1-0.5l-1,5.4c-0.4,2-1.9,4.4-7.1,4.4H3.8c-0.7,0-1.2-0.5-1.2-1.2l-0.5-6.6c0-0.3,0.1-0.7,0.3-0.9
			s0.6-0.4,0.9-0.4h2.3l1.2-6.2H4.3c-0.4,0-0.7-0.2-1-0.5c-0.2-0.3-0.3-0.7-0.3-1l0.4-2c0.4-2.2,2-3.9,4-4.7C7,14,6.6,13.5,6,12.9
			c-0.2-0.2-0.4-0.6-0.3-0.9c0-0.3,0.2-0.7,0.4-0.9l0.7-0.7c-0.3,0-0.7-0.2-0.9-0.5C5.8,9.7,5.7,9.4,5.7,9l0.2-0.8
			c0.7-3.6,3.9-6.3,7.6-6.3h8.4c0.1,0,0.1,0,0.2,0c0.2-0.3,0.6-0.4,1-0.4h17.3c0.4,0,0.7,0.2,1,0.5c0.2,0.3,0.3,0.7,0.3,1l-0.2,0.8
			c-0.4,2-1.5,3.7-3,4.8c0.4,0,0.7,0.2,0.9,0.5c0.2,0.3,0.3,0.7,0.3,1l-3,15.2c-0.4,1.8-1.5,3.3-3,4.2c0.8,0.4,1.6,0.7,2.5,0.9
			c0.4,0.1,0.8,0.4,0.9,0.9c0.1,0.4,0,0.9-0.3,1.2L32,37.4c-0.2,0.3-0.6,0.4-0.9,0.4c-0.2,0-0.4,0-0.5-0.1c-1.4-0.7-3-1.8-4.6-3.4
			c-2.2,1.6-4.4,2.9-6.6,3.8C19.2,38.1,19,38.1,18.9,38.1z M20.1,14.1l0-0.1c0.3-1.6,1.2-3,2.4-4h-0.6c-0.1,0-0.1,0-0.2,0L19,14.1
			H20.1z"/>
		<path class="st1" d="M40.4,2.7l-0.2,0.8c-0.6,3-3.3,5.3-6.4,5.3h-0.5l-0.4,1h5.4l-3,15.2c-0.5,2.3-2.5,4-4.9,4
			c1.5,1.1,3.2,2,5.3,2.5l-4.7,4.9c-1.5-0.7-3.2-2-5.1-3.9c-2.4,1.9-4.8,3.3-7.2,4.3l-3.2-4.5c1.7-0.5,3-1,4-1.5
			c0.8-0.5,1.8-1.1,2.8-1.8h-4.1l2.9-14.8c0.5-2.6,2.8-4.4,5.4-4.4l0.4-1h-5.2l1.2-6.1H40.4 M31.6,14.2h-4.3L27,15.5h4.3L31.6,14.2
			 M30.7,18.9h-4.3l-0.2,1.3h4.3L30.7,18.9 M29.8,23.6h-4.3l-0.2,1.1h4.3L29.8,23.6 M28.7,29.1h-5.1l2.8,2.1L28.7,29.1 M21.9,3.2
			l-1.2,6.1l-4,6.1h3.8l-1.2,6c-0.7,2-1.9,4.1-3.6,6.1l-2.5-1.3l-1.4,7c-0.4,2.3-2.4,3.4-5.8,3.4H3.8l-0.5-6.6h2.6
			c0.5,0,0.8-0.3,0.9-0.8l1.5-7.9h-4l0.4-2c0.5-2.3,2.5-4.1,4.9-4.1c-0.2-0.2-0.3-0.4-0.3-0.5c-0.5-0.7-1.3-1.7-2.3-2.8l3.3-2.8H7
			l0.2-0.8c0.6-3,3.3-5.3,6.4-5.3H21.9 M14.6,9.2h-3.1c0.6,0.7,1.2,1.4,1.7,2.1L14.6,9.2 M15.9,21.4h-1.8l-0.8,4.2
			C14.4,24.3,15.2,22.9,15.9,21.4 M40.4,0.2H23.1c-0.5,0-1,0.2-1.4,0.4h-8.2c-4.3,0-8,3.1-8.8,7.3L4.5,8.8c-0.1,0.7,0,1.3,0.4,1.9
			C4.6,11,4.5,11.5,4.4,12c0,0.7,0.2,1.3,0.7,1.8c0.1,0.1,0.2,0.2,0.3,0.4c-1.6,1.1-2.8,2.8-3.2,4.8l-0.4,2
			c-0.1,0.7,0.1,1.5,0.5,2.1c0.5,0.6,1.2,0.9,1.9,0.9h1l-0.7,3.7H3.3c-0.7,0-1.4,0.3-1.8,0.8c-0.5,0.5-0.7,1.2-0.7,1.9l0.5,6.6
			c0.1,1.3,1.2,2.3,2.5,2.3H6c5.6,0,7.5-2.7,8.1-4.7l2.7,3.8c0.5,0.7,1.2,1.1,2,1.1c0.3,0,0.6-0.1,0.9-0.2c2-0.8,4.1-1.9,6.1-3.3
			c1.5,1.3,2.8,2.3,4.2,2.9c0.3,0.2,0.7,0.2,1.1,0.2c0.7,0,1.3-0.3,1.8-0.8l4.7-4.9c0.6-0.6,0.8-1.5,0.6-2.4
			c-0.2-0.8-0.9-1.5-1.7-1.7c-0.1,0-0.3-0.1-0.4-0.1c0.9-1,1.5-2.2,1.8-3.6l3-15.2c0.1-0.7,0-1.3-0.4-1.9c1.1-1.2,1.9-2.7,2.2-4.4
			l0.2-0.8c0.1-0.7-0.1-1.5-0.5-2.1C41.9,0.6,41.2,0.2,40.4,0.2L40.4,0.2z"/>
	</g>
	<g>
		<path class="st0" d="M42,38c-0.4,0-0.7-0.2-1-0.5c-0.2-0.3-0.3-0.7-0.3-1l0.2-1.1c-1,0.7-2.1,1.1-3.3,1.1c-0.1,0-0.2,0-0.4,0
			c-0.4,0-0.7-0.2-0.9-0.5c-0.2-0.3-0.3-0.7-0.2-1l2.7-10.8c-0.1,0-0.1-0.1-0.2-0.2c-0.2-0.3-0.4-0.6-0.3-1c0.3-1.9,0.5-3.8,0.7-5.8
			c0.1-0.6,0.6-1.1,1.2-1.1l2.3-0.1c-0.7-1.4-1.5-2.6-2.3-3.6c-0.4-0.5-0.4-1.1,0-1.6c1.3-1.6,2.7-3.4,4-5.4c0.2-0.3,0.6-0.6,1-0.6
			c0,0,0,0,0,0c0.1,0,0.2,0,0.4,0.1c1.4-1.4,3.2-2.2,5.2-2.2c0.8,0,1.6,0.1,2.3,0.4l0.1,0c0.4,0.1,0.7,0.4,0.8,0.8
			c0.1,0.4,0.1,0.8-0.1,1.1c0,0-0.1,0.1-0.1,0.1l3.7,1.6c0.1,0.1,0.3,0.1,0.4,0.2c0.1-0.1,0.2-0.3,0.2-0.4c1.4-2.6,4-4.2,6.9-4.2
			c0.2,0,0.4,0,0.7,0l1.8,0.2c0.4,0,0.8,0.3,1,0.6c0.2,0.3,0.2,0.8,0.1,1.1c-0.3,0.7-0.5,1.3-0.8,1.9h6.6c0.4,0,0.7,0.2,1,0.5
			c0.2,0.3,0.3,0.7,0.3,1l-2.9,15c-1,5-2.4,8.7-4.3,11.3c-2,2.7-5.4,4-10.1,4h-1.2c-0.7,0-1.2-0.5-1.2-1.2l-0.4-7
			c0-0.3,0.1-0.7,0.3-0.9c0.2-0.2,0.5-0.4,0.8-0.4c-0.1-0.1-0.1-0.3-0.1-0.4c-0.1-1.4-0.2-2.7-0.4-3.9l-0.3,0.1c0,0.1,0,0.1,0,0.2
			l-1.5,10.1c-0.1,0.6-0.6,1-1.2,1.1c0,0-3.9,0.1-3.9,0.1c-0.4,0-0.7-0.1-0.9-0.4c-1.4,1.8-3.6,2.9-6,2.9H42z M59.8,28.3
			c0.7,0,1.4-0.1,2.3-0.2c0.1,0,0.3-0.1,0.5-0.6c0.1-0.1,0.1-0.3,0.2-0.4L59.8,28.3z M62.3,15.6c0.2,0,0.3,0,0.5,0.1
			c0.3,0.1,0.6,0.4,0.7,0.7c0.4,1.1,0.7,2.3,1,3.6l0.9-4.9h-2.9c-0.1,0.1-0.2,0.3-0.3,0.4C62.2,15.6,62.3,15.6,62.3,15.6z"/>
		<path class="st1" d="M65.1,3.5c0.2,0,0.4,0,0.6,0l1.8,0.2c-0.5,1.3-1.1,2.5-1.6,3.7h8.5l-2.9,15c-0.9,4.8-2.3,8.4-4.1,10.8
			c-1.8,2.3-4.8,3.5-9.1,3.5h-1.2l-0.4-7h3c0.8,0,1.6-0.1,2.6-0.2c0.6-0.1,1.1-0.6,1.4-1.3c0.6-1.5,1.2-3.6,1.7-6.3L67,14h-5
			c-1.4,1.8-2.9,3.5-4.6,5L55,12.7c1.6-1.5,3.1-3.4,4.3-5.7C60.5,4.9,62.7,3.5,65.1,3.5 M50.9,3.8c0.6,0,1.3,0.1,1.9,0.3l0.1,0
			c-1.6,2.4-3.1,4.6-4.6,6.6l0.4,0.7c1.5-1.9,2.9-3.7,4.2-5.5l4.3,1.8c-1.3,1.9-3.1,4.1-5.3,6.4l3.2-0.7c0.5,4.4,0.8,7.5,0.8,9.2
			l-4.1,1.4l0-1.5h-1.5l-1.7,8.8c-0.6,3-3.3,5.3-6.4,5.3H42l2.7-13.8l-5.1,0.2c0.3-2,0.5-3.9,0.7-5.8l2.9-0.1
			c0.3-0.3,0.6-0.6,0.9-0.8c-0.9-1.8-1.9-3.4-3-4.8c1.4-1.6,2.7-3.5,4.1-5.6l0.5,0.6l0,0C46.9,4.8,48.9,3.8,50.9,3.8 M49.3,16.9
			l2-0.1L51.1,15L49.3,16.9 M62.3,16.9c0.8,2.3,1.4,5.2,1.8,8.4l-6.4,2.5c-0.2-3.2-0.7-5.9-1.4-8.2L62.3,16.9 M44,23.8l-1.8,7.8
			c-0.5,2.1-2.4,3.6-4.5,3.6c-0.1,0-0.2,0-0.3,0l2.9-11.4H44 M54.5,24.1L53,34.1l-3.9,0.1l1.6-9.9L54.5,24.1 M65.1,1
			c-3.1,0-5.9,1.6-7.6,4.2l-2.1-0.9c0-0.3,0-0.6-0.1-0.9c-0.3-0.7-0.8-1.3-1.6-1.5l-0.1,0c-0.9-0.3-1.8-0.5-2.7-0.5
			c-2.1,0-4.1,0.8-5.7,2.2c-0.8,0-1.6,0.5-2,1.1c-1.3,2-2.6,3.8-3.9,5.3c-0.8,0.9-0.8,2.3,0,3.2c0.4,0.5,0.8,1,1.2,1.6l-0.2,0
			c-1.2,0.1-2.2,1-2.4,2.2c-0.2,1.9-0.4,3.8-0.7,5.7c-0.1,0.6,0.1,1.2,0.4,1.7L35,34.6c-0.2,0.7,0,1.5,0.4,2.1c0.4,0.6,1.1,1,1.9,1
			c0.2,0,0.3,0,0.4,0c0.7,0,1.3-0.1,2-0.3c0.1,0.3,0.3,0.6,0.5,0.9c0.5,0.6,1.2,0.9,1.9,0.9h0.2c2.4,0,4.6-1,6.3-2.5
			c0.2,0.1,0.4,0.1,0.7,0.1c0,0,0,0,0.1,0l3.9-0.1c0.5,0,1.1-0.2,1.5-0.5l0,0.7c0.1,1.3,1.2,2.4,2.5,2.4h1.2c5.1,0,8.9-1.5,11.1-4.5
			c2-2.8,3.5-6.6,4.5-11.8l2.9-15c0.1-0.7-0.1-1.5-0.5-2.1c-0.5-0.6-1.2-0.9-1.9-0.9h-4.7c0-0.1,0.1-0.1,0.1-0.2
			c0.3-0.7,0.2-1.6-0.2-2.3c-0.4-0.7-1.1-1.1-1.9-1.2L65.9,1C65.6,1,65.4,1,65.1,1L65.1,1z"/>
	</g>
	<g>
		<path class="st2" d="M73,37.4c-0.4,0-0.7-0.2-1-0.5c-0.2-0.3-0.3-0.7-0.3-1l0.1-0.6c0.6-3.2,3.2-5.7,6.4-6.2l1.3-6.4
			c-0.1,0-0.2,0-0.3,0c-0.1,0-0.2,0-0.3,0c-0.3-0.1-0.6-0.3-0.8-0.6l-3-5.2c-0.2-0.3-0.2-0.7-0.1-1c0.1-0.3,0.3-0.6,0.6-0.8
			c1.4-0.7,2.8-1.5,4.2-2.4h-1.7c-0.4,0-0.7-0.2-1-0.5c-0.2-0.3-0.3-0.7-0.3-1l0.2-1.1C77.8,6.6,81,4,84.7,4H91l0.3-1.5
			c0.1-0.6,0.6-1,1.2-1h6.1c0.4,0,0.7,0.2,1,0.5c0.2,0.3,0.3,0.7,0.3,1l-0.2,1h10.1c0.4,0,0.7,0.2,1,0.5c0.2,0.3,0.3,0.7,0.3,1
			l-0.3,1.7c-0.5,2.4-2.1,4.3-4.3,5.1c1,0.9,2.2,1.8,3.4,2.5c0.3,0.2,0.5,0.5,0.6,0.8c0.1,0.3,0,0.7-0.2,1l-4.2,5.9
			c-0.2,0.3-0.5,0.5-0.8,0.5c-0.1,0-0.1,0-0.2,0c-0.3,0-0.6-0.1-0.8-0.3l-0.6-0.5l-0.4,2.1c-0.4,1.9-1.4,3.5-2.8,4.6h5.3
			c0.4,0,0.7,0.2,1,0.5c0.2,0.3,0.3,0.7,0.3,1l-0.1,0.6c-0.7,3.6-3.9,6.3-7.6,6.3H73z"/>
		<path class="st1" d="M98.6,2.7l-0.5,2.5h11.7L109.4,7c-0.5,2.7-2.9,4.6-5.6,4.6c1.5,1.6,3.2,3.1,5.3,4.4l-4.2,5.9l-2.2-1.8
			l-0.8,4.1c-0.6,3-3.3,5.3-6.4,5.3H79.5l0.4-2.1l1.4-7.2l-2.1,1.3l-3-5.2c2.7-1.4,5.2-2.9,7.7-4.7h-5.7l0.2-1.1
			c0.6-3,3.3-5.3,6.4-5.3H92l0.5-2.5H98.6 M96.1,15.4h1.4h1.1c-0.7-1-1.3-2-1.8-3.1L96.1,15.4 M90.6,12.4c-1,1.1-2,2-3,2.9h2.5
			L90.6,12.4 M96.7,19.5h-9.1l-0.2,1.1h9.1L96.7,19.5 M95.8,24.2h-9.1l-0.2,1.1h9.1L95.8,24.2 M105.7,30.3l-0.1,0.6
			c-0.6,3-3.3,5.3-6.4,5.3H73l0.1-0.6c0.6-3,3.3-5.3,6.4-5.3H105.7 M98.6,0.2h-6.1c-1.2,0-2.2,0.8-2.5,2L90,2.7h-5.3
			c-4.3,0-8,3.1-8.8,7.3l-0.2,1.1c-0.1,0.7,0.1,1.5,0.5,2.1c0.1,0.1,0.1,0.1,0.2,0.2c-0.4,0.2-0.9,0.5-1.4,0.7
			c-0.6,0.3-1.1,0.9-1.3,1.5c-0.2,0.7-0.1,1.4,0.2,2l3,5.2c0.2,0.4,0.6,0.8,1,1l-0.6,3.2l-0.2,1.2c-3.3,0.9-5.9,3.5-6.6,7l-0.1,0.6
			c-0.1,0.7,0.1,1.5,0.5,2.1c0.5,0.6,1.2,0.9,1.9,0.9h26.3c4.3,0,8-3.1,8.8-7.3l0.1-0.6c0.1-0.7-0.1-1.5-0.5-2.1
			c-0.5-0.6-1.2-0.9-1.9-0.9h-2.5c0.6-0.9,1-2,1.3-3.1l0.1-0.4c0.2,0,0.3,0,0.5,0c0.1,0,0.2,0,0.4,0c0.7-0.1,1.3-0.5,1.7-1l4.2-5.9
			c0.4-0.6,0.5-1.3,0.4-1.9c-0.1-0.7-0.5-1.3-1.1-1.6c-0.7-0.4-1.3-0.8-1.9-1.3c1.7-1.2,2.9-3,3.3-5.1l0.3-1.7
			c0.1-0.7-0.1-1.5-0.5-2.1c-0.5-0.6-1.2-0.9-1.9-0.9h-8.7c0-0.6-0.2-1.2-0.6-1.6C100.1,0.5,99.3,0.2,98.6,0.2L98.6,0.2z"/>
	</g>
	<g>
		<path class="st2" d="M130.4,38.4c-0.7,0-1.2-0.5-1.2-1.1l-0.2-2.9c-0.1,0.1-0.3,0.2-0.4,0.4c-1.4,1-3,1.6-4.7,1.6
			c-2,0-3.9-0.8-5.3-2.2c-1.3,2.5-3.9,4.1-6.8,4.1h-0.6c-0.4,0-0.7-0.2-1-0.5c-0.2-0.3-0.3-0.7-0.3-1l1-4.9c0,0,0,0,0,0
			c-0.1,0-0.2,0-0.3,0c-0.5-0.1-0.8-0.5-0.9-1l-1-7.2c0-0.4,0.1-0.7,0.3-1c1.3-1.5,2.4-2.9,3.2-4.2c0.3-0.5,0.6-1.1,1-1.7h-0.8
			c-0.4,0-0.7-0.2-1-0.5c-0.2-0.3-0.3-0.7-0.3-1l1.3-6.6c0.1-0.6,0.6-1,1.2-1h2l0,0c0.7-3.6,3.9-6.3,7.6-6.3h0.6
			c0.4,0,0.7,0.2,1,0.5c0.2,0.3,0.3,0.7,0.3,1l-0.2,0.9c0.1,0,0.2,0,0.2,0h6.2l0.3-1.3c0.1-0.6,0.6-1,1.2-1h6.5c0.4,0,0.7,0.2,1,0.5
			c0.2,0.3,0.3,0.7,0.3,1l-0.2,0.9h6.3c0.4,0,0.7,0.2,1,0.5c0.2,0.3,0.3,0.7,0.3,1l-0.9,4.8c0,0.2-0.1,0.3-0.2,0.5
			c0,0,0.1,0.1,0.1,0.1c0.2,0.3,0.3,0.7,0.3,1l-0.3,1.5c-0.4,1.9-1.5,3.6-2.9,4.7h0.3c0.4,0,0.7,0.2,1,0.5c0.2,0.3,0.3,0.7,0.3,1
			l-0.1,0.4c-0.4,1.9-1.4,3.6-2.9,4.7c0.2,0.1,0.4,0.2,0.5,0.4c0.2,0.3,0.3,0.7,0.3,1l-0.8,4.2c-0.4,2.1-1.1,3.8-2.1,5.1
			c-1,1.3-2.1,2.2-3.4,2.7c-1.2,0.5-2.7,0.7-4.6,0.7H130.4z M119.7,29.7c2.9-1.1,4.2-2,4.8-2.6c0.3-0.3,0.7-0.7,0.9-1.2h-3.9
			l-0.3,0.5c-0.2,0.4-0.6,0.6-1.1,0.6c0,0,0,0,0,0L119.7,29.7z"/>
		<path class="st1" d="M139.1,2.6l-0.5,2.3h7.9l-0.9,4.8h-2.9c-0.3,0.6-0.5,1.1-0.7,1.6h3.8l-0.3,1.5c-0.6,3.1-3.3,5.3-6.4,5.3h-0.9
			l0.3-1.5h-10l-0.3,1.5h-5.2l0.7,0.9h6l0.3-1.5h6.5l-0.3,1.5h7.9l-0.1,0.4c-0.6,3-3.3,5.3-6.4,5.3h-3.8c-0.1,0.3-0.1,0.5-0.2,0.8
			h8.3l-0.8,4.2c-0.4,1.9-1,3.5-1.8,4.6c-0.8,1.1-1.8,1.9-2.8,2.3c-1.1,0.4-2.5,0.6-4.2,0.6h-1.7l-0.4-5.4c-0.7,0.7-1.5,1.4-2.2,2
			c-1.2,0.9-2.6,1.3-3.9,1.3c-2,0-4.1-1-5.3-2.8l-0.4-0.6c3.7-1.3,6.1-2.5,7.3-3.6c0.9-0.9,1.6-2,2-3.3h-6.5l-0.7,1.1l-0.7-1.6
			l-1.5,7.5c-0.6,3-3.3,5.3-6.4,5.3h-0.6l1.7-8.9l-2,2.5l-1-7.2c1.4-1.6,2.5-3,3.3-4.3c0.6-1,1.3-2.2,2-3.6h-2.9l1.3-6.6h3l0.2-1
			c0.6-3,3.3-5.3,6.4-5.3h0.6l-1.2,6.3h1.7l0.8-3.9h7.2l0.5-2.3H139.1 M136.2,9.7h-2.9l0.1,1.6h2.2L136.2,9.7 M127,9.7h-2.5
			l-0.3,1.6h2.8C126.9,10.7,126.9,10.2,127,9.7 M122.5,15.5h-1.3l-0.1,0.3c0.2,0.3,0.5,0.6,0.7,0.9l0.3,0.3L122.5,15.5 M134.9,29.9
			h-3.3c-0.3,0.4-0.7,0.8-1,1.2c0.9,0.1,1.8,0.2,2.7,0.2c0.3,0,0.6-0.1,0.8-0.3C134.4,30.9,134.6,30.5,134.9,29.9 M139.1,0.1h-6.5
			c-1.2,0-2.2,0.8-2.5,2l-0.1,0.3h-3.9c0-0.5-0.2-1-0.6-1.4c-0.5-0.6-1.2-0.9-1.9-0.9h-0.6c-3.9,0-7.4,2.6-8.6,6.3h-1
			c-1.2,0-2.2,0.8-2.5,2l-1.3,6.6c-0.1,0.7,0.1,1.5,0.5,2.1c0.2,0.3,0.5,0.5,0.8,0.6c0,0,0,0,0,0c-0.8,1.2-1.9,2.6-3.1,4
			c-0.5,0.5-0.7,1.3-0.6,2l1,7.2c0.1,0.7,0.5,1.3,1.1,1.7l-0.7,3.9c-0.1,0.7,0.1,1.5,0.5,2.1c0.5,0.6,1.2,0.9,1.9,0.9h0.6
			c2.9,0,5.5-1.4,7.1-3.5c1.4,1,3.2,1.6,5,1.6c1.4,0,2.8-0.3,4.1-1l0.1,0.8c0.1,1.3,1.2,2.3,2.5,2.3h1.7c2.1,0,3.7-0.3,5.1-0.8
			c1.5-0.5,2.8-1.6,4-3.1c1.1-1.4,1.8-3.2,2.3-5.6l0.8-4.2c0.1-0.5,0-1.1-0.2-1.6c1.2-1.2,2-2.8,2.3-4.5l0.1-0.4
			c0.1-0.7-0.1-1.5-0.5-2.1c0,0,0,0,0,0c1-1.1,1.7-2.5,2-4.1l0.3-1.5c0.1-0.5,0-1.1-0.2-1.6c0,0,0-0.1,0-0.1l0.9-4.8
			c0.1-0.7-0.1-1.5-0.5-2.1s-1.2-0.9-1.9-0.9h-4.9c0-0.5-0.2-1-0.6-1.4C140.5,0.4,139.8,0.1,139.1,0.1L139.1,0.1z"/>
	</g>
	<path class="st2" d="M145.1,37.4c-1.2,0-2.2-0.4-3.1-1.3c-1.7-1.7-1.7-4.4,0-6.1l4.9-4.9c0.8-0.8,1.8-1.2,2.8-1.3l0.1-0.1
		c-1.5-2.3-2.3-5-2.3-7.7c0-8,6.5-14.5,14.5-14.5c8,0,14.5,6.5,14.5,14.5S170,30.5,162,30.5c-2.7,0-5.4-0.8-7.7-2.3l-0.1,0.1
		c-0.1,1.2-0.5,2.1-1.2,2.8l-4.9,4.9C147.4,36.9,146.3,37.4,145.1,37.4z M162.1,7.8c-4.6,0-8.4,3.7-8.4,8.3s3.7,8.4,8.4,8.4
		c4.7,0,8.4-3.7,8.4-8.4S166.7,7.8,162.1,7.8z"/>
	<path class="st1" d="M162.1,2.7c7.4,0,13.4,6,13.4,13.4s-6,13.4-13.4,13.4c-2.9,0-5.6-1-7.8-2.6l-1,1c0,0.1,0,0.1,0,0.2
		c0,0.9-0.3,1.7-1,2.3l-4.9,4.9c-0.6,0.6-1.4,1-2.3,1c-0.9,0-1.7-0.3-2.3-1c-1.3-1.3-1.3-3.3,0-4.6l4.9-4.9c0.6-0.6,1.4-1,2.3-1
		c0.1,0,0.1,0,0.2,0l1-1c-1.6-2.2-2.6-4.9-2.6-7.8C148.6,8.7,154.6,2.7,162.1,2.7 M162.1,25.5c5.2,0,9.4-4.2,9.4-9.4
		s-4.2-9.4-9.4-9.4s-9.4,4.2-9.4,9.4C152.6,21.3,156.9,25.5,162.1,25.5 M162.1,0.6c-8.6,0-15.5,7-15.5,15.5c0,2.4,0.6,4.8,1.7,7
		c-0.8,0.3-1.4,0.7-2,1.3l-4.9,4.9c-2.1,2.1-2.1,5.5,0,7.6c1,1,2.4,1.6,3.8,1.6c1.4,0,2.8-0.6,3.8-1.6l4.9-4.9c0.6-0.6,1-1.3,1.3-2
		c2.2,1.1,4.6,1.7,7,1.7c8.6,0,15.5-7,15.5-15.5C177.6,7.6,170.6,0.6,162.1,0.6L162.1,0.6z"/>
	<g>
		<path class="st2" d="M162.2,16.9c-0.1,0-0.2,0-0.3-0.1c-0.3-0.1-0.4-0.4-0.4-0.7V8.8c0-0.4,0.3-0.8,0.8-0.8s0.8,0.3,0.8,0.8v5.8
			l3-2.3c0.3-0.3,0.8-0.2,1.1,0.1c0.3,0.3,0.2,0.8-0.1,1.1l-4.2,3.3C162.6,16.8,162.4,16.9,162.2,16.9z"/>
	</g>
	<circle class="st2" cx="162.2" cy="24" r="0.6"/>
	<circle class="st2" cx="153.3" cy="16.2" r="0.6"/>
	<circle class="st2" cx="170" cy="16.2" r="0.6"/>
	<g>
		<path class="st2" d="M118.5,32.2l-0.4-0.6c3.7-1.3,6.1-2.5,7.3-3.6c0.9-0.9,1.6-2,2-3.3h-6.5l-0.7,1.1l-0.7-1.6l-1.5,7.5
			c-0.6,3-3.3,5.3-6.4,5.3h-0.6l1.7-8.9l-2,2.5l-1-7.2c1.4-1.6,2.5-3,3.3-4.3c0.6-1,1.3-2.2,2-3.6h-2.9l1.3-6.6h3l0.2-1
			c0.6-3,3.3-5.3,6.4-5.3h0.6l-1.2,6.3h1.7l0.8-3.9h7.2l0.5-2.3h6.5l-0.5,2.3h7.9l-0.9,4.8h-2.9c-0.3,0.6-0.5,1.1-0.7,1.6h3.8
			l-0.3,1.5c-0.6,3.1-3.3,5.3-6.4,5.3h-0.9l0.3-1.5h-10l-0.3,1.5h-5.2l0.7,0.9h6l0.3-1.5h6.5l-0.3,1.5h7.9l-0.1,0.4
			c-0.6,3-3.3,5.3-6.4,5.3h-3.8c-0.1,0.3-0.1,0.5-0.2,0.8h8.3l-0.8,4.2c-0.4,1.9-1,3.5-1.8,4.6c-0.8,1.1-1.8,1.9-2.8,2.3
			c-1.1,0.4-2.5,0.6-4.2,0.6h-1.7l-0.4-5.4c-0.7,0.7-1.5,1.4-2.2,2C124.8,36,120.6,35.3,118.5,32.2z M121.1,15.8
			c0.2,0.3,0.5,0.6,0.7,0.9l0.3,0.3l0.3-1.5h-1.3L121.1,15.8z M124.1,11.3h2.8c0-0.6,0-1.1,0-1.6h-2.5L124.1,11.3z M130.5,31.2
			c0.9,0.1,1.8,0.2,2.7,0.2c0.3,0,0.6-0.1,0.8-0.3c0.3-0.2,0.5-0.6,0.8-1.1h-3.3C131.2,30.3,130.9,30.8,130.5,31.2z M133.4,11.3h2.2
			l0.7-1.6h-2.9L133.4,11.3z"/>
	</g>
</g>
</svg>
