<?xml version="1.0" encoding="utf-8"?>
<!-- Generator: Adobe Illustrator 16.0.0, SVG Export Plug-In . SVG Version: 6.00 Build 0)  -->
<!DOCTYPE svg PUBLIC "-//W3C//DTD SVG 1.1//EN" "http://www.w3.org/Graphics/SVG/1.1/DTD/svg11.dtd">
<svg version="1.1" id="圖層_1" xmlns="http://www.w3.org/2000/svg" xmlns:xlink="http://www.w3.org/1999/xlink" x="0px" y="0px"
	 width="551.926px" height="593.247px" viewBox="0 0 551.926 593.247" enable-background="new 0 0 551.926 593.247"
	 xml:space="preserve">
<g>
	<g>
		<path fill="#E83B37" d="M494.851,0H57.075C25.559,0,0,25.547,0,57.075v183.458c0,31.528,25.559,57.075,57.075,57.075h437.775
			c31.517,0,57.075-25.547,57.075-57.075V57.075C551.926,25.547,526.367,0,494.851,0z"/>
		<g>
			<rect x="115.285" y="117.827" fill="#FFFFFF" width="12.78" height="56.3"/>
			<path fill="#FFFFFF" d="M139.778,90.289l1.873-1.171L128.078,82.2l-0.601,0.377c-4.891,3.074-10.455,6.012-16.535,8.732
				l-2.458,1.1l11.505,5.54H89.286l11.017-5.305l-1.769-1.222c-5.11-3.531-10.978-6.505-17.438-8.84l-0.51-0.184l-13.948,7.109
				l2.61,1.009c6.09,2.354,11.38,4.851,15.751,7.432H52.566v12.834H157.98V97.949h-32.811
				C129.511,96.213,134.412,93.645,139.778,90.289z"/>
			<path fill="#FFFFFF" d="M62.153,149.229c0,18.145-3.421,30.966-10.169,38.109l-1.012,1.071l10.823,7.292l0.722-0.87
				c5.268-6.348,8.875-15.19,10.729-26.296h20.381v11.333c0,0.679-0.187,1.116-1.14,1.335c-1.303,0.301-4.19,0.454-8.583,0.454
				c-1.911,0-3.707-0.099-5.337-0.295l-1.982-0.238l4.619,13.37l0.827,0.056c1.832,0.123,3.939,0.186,6.264,0.186
				c4.785,0,8.066-0.286,10.032-0.874c2.076-0.621,3.862-1.893,5.311-3.78c1.455-1.897,2.193-4.617,2.193-8.086v-65.871H62.153
				V149.229z M74.586,136.308v-7.713h19.042v7.713H74.586z M93.628,148.474v8.078H74.586v-8.078H93.628z"/>
			<path fill="#FFFFFF" d="M137.057,179.625c0,0.417-0.156,0.83-0.476,1.262c-0.285,0.383-0.477,0.467-0.526,0.467h-16.477
				l4.044,13.146l0.866,0.051c2.753,0.163,5.382,0.245,7.813,0.245c6.5,0,10.884-0.928,13.403-2.837
				c2.626-1.992,3.902-5.708,3.902-11.361v-65.506h-12.549V179.625z"/>
			<path fill="#FFFFFF" d="M241.477,152.729h26.508V139.53h-26.508v-23.883h29.338V102.69h-29.053
				c-2.3-6.796-4.992-12.998-8.007-18.444l-0.467-0.844l-13.252,3.375l0.793,1.419c2.401,4.299,4.756,9.167,7.011,14.494h-29.289
				v12.956h29.916v23.883h-26.508v13.199h26.508v28.017h-30.608v12.956h75.209v-12.956h-31.59V152.729z"/>
			<path fill="#FFFFFF" d="M173.229,119.793c10.367-6.031,19.933-15.8,28.433-29.038l0.729-1.135l-11.471-6.188l-0.617,1.013
				c-5.461,8.96-13.284,16.888-23.249,23.563l-0.916,0.614l5.942,11.839L173.229,119.793z"/>
			<path fill="#FFFFFF" d="M205.268,120.113l-11.236-6.178l-0.618,1.038c-7.804,13.119-16.603,23.176-26.152,29.891l-0.851,0.598
				l5.661,12.364l1.218-0.806c3.201-2.117,5.877-4.119,7.994-5.979v44.789h13.126v-59.256c4.249-5.721,7.69-10.886,10.232-15.359
				L205.268,120.113z"/>
			<path fill="#FFFFFF" d="M313.015,153.225l10.82,6.638l0.573-1.32c3.117-7.177,5.423-18.061,6.854-32.35l0.138-1.375h-16.13
				c-0.91-1.586-2.101-3.514-3.552-5.749c5.356-6.12,10.201-12.854,14.411-20.028l0.172-0.293V86.581h-40.73v13.078h25.261
				c-1.605,2.381-3.871,5.229-6.766,8.502c-1.776-2.392-3.615-4.747-5.48-7.019l-0.688-0.84l-10.931,6.661l0.906,1.111
				c4.757,5.831,8.956,11.454,12.505,16.745h-17.291v12.956h16.344v42.823c0,0.673-0.114,1.241-1.521,1.37
				c-1.7,0.155-5.486,0.154-11.17-0.005l-1.697-0.048l3.704,13.198l0.896,0.047c2.037,0.108,3.938,0.162,5.65,0.162
				c7.177,0,11.418-0.902,13.347-2.838c2.293-2.299,3.455-4.907,3.455-7.752v-46.957h5.088c-0.813,4.946-2.093,9.813-3.813,14.489
				L313.015,153.225z"/>
			<path fill="#FFFFFF" d="M366.724,171.973l-0.502-0.216h18.525v-64.628h-21.956c1.021-2.97,1.821-5.555,2.389-7.713h23.205V86.581
				h-60.54v12.834h23.346c-0.812,2.854-1.685,5.44-2.604,7.713h-16.758v64.628h11.232c-7.194,6.517-13.851,11.06-19.814,13.522
				l-1.515,0.625l8.517,11l0.928-0.486c8.578-4.496,17.323-11.072,25.993-19.545l0.896-0.876l-4.162-4.239h11.744l-7.374,10.793
				l1.402,0.597c7.124,3.032,14.41,7.161,21.656,12.272l0.97,0.684l8.164-10.386l-1.02-0.768
				C382.89,180.008,375.244,175.642,366.724,171.973z M344.609,124.21v-4.613h27.069v4.613H344.609z M344.609,141.657v-5.099h27.069
				v5.099H344.609z M344.609,159.043v-5.22h27.069v5.22H344.609z"/>
			<path fill="#FFFFFF" d="M467.656,102.812c2.193-6.377,3.685-11.704,4.437-15.853l0.218-1.2l-12.654-2.619l-0.287,1.17
				c-4.182,17.044-9.815,30.941-16.746,41.306l-0.658,0.984l10.662,8.005l0.734-1.091c3.107-4.61,6.179-10.333,9.136-17.017h26.52
				c-0.017,7.281-0.171,15.04-0.46,23.082c-0.306,8.479-0.742,17.036-1.297,25.434c-0.721,10.878-1.093,13.391-1.25,13.919
				c-0.235,0.788-0.691,1.438-1.394,1.988c-0.684,0.537-1.574,0.797-2.723,0.797H462.21l5.306,13.406l0.81,0.036
				c2.78,0.122,5.441,0.184,7.909,0.184c7.101,0,11.673-0.515,13.978-1.573c2.311-1.061,4.528-3.083,6.593-6.008
				c1.344-1.906,3.243-7.606,4.213-34.993c0.709-20.071,1.088-36.457,1.126-48.703l0.004-1.254H467.656z"/>
			<path fill="#FFFFFF" d="M451.725,155.597c-3.102-9.713-6.379-17.164-9.74-22.143l-0.57-0.846l-11.502,4.751l0.884,1.275
				c0.958,1.383,1.715,2.729,2.26,4.019c-4.935,1.259-9.646,2.241-14.064,2.931c11.608-11.692,21.51-25.034,29.466-39.71
				l0.567-1.046l-11.156-6.775l-0.622,1.166c-2.497,4.677-5.076,8.975-7.673,12.782c-4.288,0.896-8.611,1.615-12.896,2.145
				c5.41-6.793,10.449-15.018,15.003-24.495l0.549-1.143l-12.04-5.583l-0.495,1.213c-5.084,12.458-11.657,23.365-19.537,32.417
				l-0.424,0.488l2.898,11.92l1.103-0.134c5.947-0.72,11.282-1.519,15.909-2.379c-5.812,7.799-12.807,15.467-20.832,22.832
				l-0.619,0.568l4.339,11.702l0.997-0.142c0.454-0.064,0.911-0.131,1.37-0.199l-0.182,1.135
				c-1.519,9.514-3.926,18.697-7.154,27.296l-0.394,1.048l11.573,5.866l0.507-1.27c3.368-8.436,5.938-18.304,7.641-29.331
				l0.161-1.044l-11.46-3.805c9.976-1.513,20.927-3.838,32.604-6.923c0.837,2.048,1.552,4.093,2.132,6.093l0.343,1.186l-7.899,1.985
				l0.557,1.339c3.178,7.646,5.21,14.618,6.038,20.722l0.204,1.504l11.588-3.938l-0.201-1.066c-1.089-5.77-3.229-12.64-6.364-20.418
				l-0.407-1.011l-2.405,0.604l10.29-4.513L451.725,155.597z"/>
			<path fill="#FFFFFF" d="M430.535,163.696l-0.328-1.071l-12.405,2.354l0.411,1.335c2.237,7.271,3.893,15.681,4.919,24.998
				l0.159,1.451l12.567-3.402l-0.139-1.081C434.598,179.536,432.854,171.264,430.535,163.696z"/>
			<path fill="#FFFFFF" d="M474.528,168.686l10.684-7.624l-0.461-0.95c-4.538-9.349-11.37-18.982-20.306-28.632l-0.799-0.863
				l-9.943,8.133l0.862,0.974c8.967,10.119,15.468,19.407,19.325,27.606L474.528,168.686z"/>
		</g>
	</g>
	<path opacity="0.12" fill="#040000" d="M320.838,293.474h-80.333l56.936-54.69l1.721-1.92c3.95-3.899,9.38-6.31,15.38-6.31h0.439
		c6.011,0,11.46,2.42,15.41,6.34l1.74,1.93l-14.293,17.681L320.838,293.474z"/>
	<g>
		<path fill="#F8C7BE" d="M452.331,345.424l-0.04,0.87l-3.04,82.33c-0.561,15.18-5.54,29.18-13.68,40.779
			c-4.62,6.61-10.271,12.45-16.7,17.271c-12.73,9.58-28.561,15.229-45.66,15.229h-1.48c-16,0-30.869-4.949-43.14-13.42
			c-14.12-9.74-24.79-24.13-29.79-41.02c-5.64-19.061-14.88-36.931-28.44-51.46c-9.93-10.63-21.08-20.19-33.29-28.431
			c-10.85-7.38-16.11-21.51-10.57-33.14c0.07-0.14,0.14-0.27,0.21-0.41c5.51-11.59,22.6-14.93,36.66-5.43
			c10.41,7.03,20.16,14.85,29.27,23.31v-99.439c0-5.181,1.79-9.931,4.8-13.681c0.53-0.67,1.11-1.31,1.721-1.92
			c3.95-3.899,9.38-6.31,15.38-6.31h0.439c6.011,0,11.46,2.42,15.41,6.34c0.62,0.61,1.2,1.25,1.74,1.93
			c2.98,3.74,4.76,8.48,4.76,13.641v70.189c4-4.359,9.74-7.12,16.13-7.12h0.44c9.31,0,17.24,5.811,20.41,13.99
			c3.99-5.41,10.39-8.939,17.63-8.939h0.439c9.32,0,17.261,5.83,20.431,14.04c0.16-0.221,0.31-0.44,0.479-0.641
			c3.98-5.06,10.17-8.319,17.12-8.319h0.44c11.37,0,20.74,8.68,21.8,19.76H452.331z"/>
		<polygon fill="#F8C7BE" points="424.555,593.247 322.949,593.247 328.8,478.021 418.704,478.021 		"/>
	</g>
</g>
</svg>
